:version 1.10
:name ASF
:units
  mass 1
  length 1
  angle deg
:documentation
  ASF file generated by Kaydara
:root
  axis xyz
  order  tx ty tz rx ry rz
  position 0 0 0
  orientation 0 0 0
:bonedata
  begin
    id 1
    name RightUpLegDummy
    direction -0.718183 -0.695806 0.00816078
    length 4.904
    axis 0 0 0 xyz
  end
  begin
    id 2
    name RightUpLeg
    direction 3.53373e-006 -0.995788 0.0916898
    length 17.4976
    axis -3.49089 -0.000906625 0.000286804 xyz
    dof rx ry rz
  end
  begin
    id 3
    name RightLeg
    direction 0.00371092 -0.995096 -0.0988419
    length 16.5821
    axis 3.68512 0.0193738 -0.131023 xyz
    dof rx ry rz
  end
  begin
    id 4
    name RightFoot
    direction 0.00079151 -0.46099 0.887405
    length 3.77069
    axis 4.81691e-005 -0.120479 -0.188788 xyz
    dof rx ry rz
  end
  begin
    id 5
    name RightToes
    direction 0 0 0
    length 0
    axis 0 0 0 xyz
    dof rx ry rz
  end
  begin
    id 6
    name SpineDummy
    direction 8.3039e-015 1 4.57515e-016
    length 4.6813
    axis 0 0 0 xyz
  end
  begin
    id 7
    name Spine
    direction -3.15643e-008 0.999988 0.00495137
    length 10.1015
    axis -0.001389 0.000121418 2.40972e-006 xyz
    dof rx ry rz
  end
  begin
    id 8
    name Spine1
    direction 0 0 0
    length 0
    axis -0.001389 0.000121451 1.30017e-006 xyz
    dof rx ry rz
  end
  begin
    id 9
    name HEadDummy
    direction -1.99912e-008 0.999999 0.00127422
    length 3.43865
    axis -0.001389 0.000121451 1.30017e-006 xyz
  end
  begin
    id 10
    name HEad
    direction 0 0 0
    length 0
    axis 0 0 0 xyz
    dof rx ry rz
  end
  begin
    id 11
    name LeftShoulder1Dummy
    direction 0.998891 -0.0402509 -0.0244456
    length 3.5433
    axis -0.001389 0.000121451 1.30017e-006 xyz
  end
  begin
    id 12
    name LeftShoulder1
    direction 0.99951 -0.000327763 0.0313091
    length 4.05031
    axis -0.001389 0.000121451 1.30017e-006 xyz
    dof rx ry rz
  end
  begin
    id 13
    name LeftArm
    direction 0.998561 -0.00100056 -0.0536182
    length 10.3537
    axis -23.1894 0.134784 0.967509 xyz
    dof rx ry rz
  end
  begin
    id 14
    name LeftForeArm
    direction 0.998903 0.00866432 0.046012
    length 8.70632
    axis -9.91835 -0.06569 -0.177794 xyz
    dof rx ry rz
  end
  begin
    id 15
    name LeftHand
    direction 0 0 0
    length 0
    axis 0 0 0 xyz
    dof rx ry rz
  end
  begin
    id 16
    name RightShoulderDummy
    direction -0.998891 -0.0402509 -0.0244414
    length 3.5433
    axis -0.001389 0.000121451 1.30017e-006 xyz
  end
  begin
    id 17
    name RightShoulder
    direction -0.99951 -0.000327807 0.0313133
    length 4.05031
    axis 0.215806 0.000203643 -0.0068026 xyz
    dof rx ry rz
  end
  begin
    id 18
    name RightArm
    direction -0.998573 -0.000999564 -0.053403
    length 10.3947
    axis -23.2009 -0.134239 -0.964101 xyz
    dof rx ry rz
  end
  begin
    id 19
    name RightForeArm
    direction -0.998898 0.00868028 0.0461306
    length 8.68355
    axis -9.92322 0.0658061 0.178868 xyz
    dof rx ry rz
  end
  begin
    id 20
    name RightHand
    direction 0 0 0
    length 0
    axis 0 0 0 xyz
    dof rx ry rz
  end
  begin
    id 21
    name LeftUpLegDummy
    direction 0.718183 -0.695806 0.00816078
    length 4.904
    axis 0 0 0 xyz
  end
  begin
    id 22
    name LeftUpLeg
    direction -6.81752e-006 -0.995793 0.0916337
    length 17.4976
    axis -3.48766 0.00143442 -0.000524262 xyz
    dof rx ry rz
  end
  begin
    id 23
    name LeftLeg
    direction -0.00601358 -0.995091 -0.0987824
    length 16.5821
    axis 3.68178 -0.00654042 -0.000285133 xyz
    dof rx ry rz
  end
  begin
    id 24
    name LeftFoot
    direction -0.00417578 -0.460984 0.887399
    length 3.77069
    axis 1.87233e-006 4.66016e-005 -8.6538e-006 xyz
    dof rx ry rz
  end
  begin
    id 25
    name LeftToes
    direction 0 0 0
    length 0
    axis 0 0 0 xyz
    dof rx ry rz
  end
:hierarchy
  begin
    root RightUpLegDummy SpineDummy LeftUpLegDummy
    RightUpLegDummy RightUpLeg
    RightUpLeg RightLeg
    RightLeg RightFoot
    RightFoot RightToes
    SpineDummy Spine
    Spine Spine1
    Spine1 HEadDummy LeftShoulder1Dummy RightShoulderDummy
    HEadDummy HEad
    LeftShoulder1Dummy LeftShoulder1
    LeftShoulder1 LeftArm
    LeftArm LeftForeArm
    LeftForeArm LeftHand
    RightShoulderDummy RightShoulder
    RightShoulder RightArm
    RightArm RightForeArm
    RightForeArm RightHand
    LeftUpLegDummy LeftUpLeg
    LeftUpLeg LeftLeg
    LeftLeg LeftFoot
    LeftFoot LeftToes
  end

:SAMPLES-PER-SECOND 30
:FULLY-SPECIFIED
:DEGREES
165
root  -54.8395 41.4215 -0.274914 152.302 -89.181 -153.741
RightUpLeg  -0.458074 -7.11431 -3.74641
RightLeg  6.23072 -2.74141 2.87122
RightFoot  -2.35835 0.0644503 -1.08367
RightToes  0.000481922 0.542163 -0.142578
Spine  -0.452218 -0.0113962 -1.23868
Spine1  3.72433 -0.696286 3.6478
HEad  -2.64217 -0.258432 -1.71506
LeftShoulder1  1.19031 -3.80401 -8.81457
LeftArm  -12.2659 3.84266 4.22059
LeftForeArm  22.6445 -4.49538 -4.31444
LeftHand  -0.25398 0.0180481 5.50724
RightShoulder  0.251761 -1.33098 3.59659
RightArm  -24.2115 -0.287497 -1.88735
RightForeArm  -3.85373 7.31027 3.41892
RightHand  -1.93988 6.67481 -18.9132
LeftUpLeg  5.64595 2.90022 -0.814114
LeftLeg  1.44024 8.63377 -3.18328
LeftFoot  -4.8463 -0.246149 4.84067
LeftToes  1.06245e-005 4.65869e-005 -8.65513e-006
166
root  -54.878 41.4211 -0.31561 154.719 -89.0012 -156.03
RightUpLeg  -0.507649 -7.04034 -3.61192
RightLeg  6.12605 -2.66669 2.88459
RightFoot  -2.35215 0.0702904 -1.17443
RightToes  0.000481922 0.542163 -0.142578
Spine  -0.68429 0.181603 -0.981077
Spine1  4.11072 -0.501028 3.6009
HEad  -2.80367 -0.244617 -1.81703
LeftShoulder1  1.23351 -3.94027 -9.13243
LeftArm  -11.8664 3.50941 4.1948
LeftForeArm  23.057 -4.47774 -4.51314
LeftHand  -0.25398 0.0180481 5.50724
RightShoulder  0.282339 -1.10087 3.78039
RightArm  -23.5178 -0.238347 -1.65246
RightForeArm  -3.35485 6.14671 3.36103
RightHand  -1.84836 6.37155 -18.494
LeftUpLeg  5.55579 2.96386 -0.689139
LeftLeg  1.49692 8.71164 -3.19917
LeftFoot  -4.91009 -0.240799 4.75722
LeftToes  1.06245e-005 4.65869e-005 -8.65513e-006
167
root  -54.9145 41.4216 -0.347506 155.076 -88.8267 -156.307
RightUpLeg  -0.47071 -6.98516 -3.49291
RightLeg  5.96156 -2.58185 2.92716
RightFoot  -2.35175 0.073792 -1.22886
RightToes  0.000481922 0.542163 -0.142578
Spine  -0.871502 0.354744 -0.55566
Spine1  4.50362 -0.268064 3.26125
HEad  -3.09942 -0.216634 -1.70686
LeftShoulder1  1.20143 -3.86202 -8.83993
LeftArm  -11.5034 3.13096 3.70526
LeftForeArm  24.245 -4.58089 -4.68391
LeftHand  -0.25398 0.0180481 5.50724
RightShoulder  0.304313 -0.996852 4.21989
RightArm  -23.2219 -0.148545 -1.66443
RightForeArm  -2.87237 5.26092 3.25537
RightHand  -1.78122 6.10864 -18.2343
LeftUpLeg  5.54711 3.05117 -0.549269
LeftLeg  1.49206 8.77059 -3.23278
LeftFoot  -4.98716 -0.239409 4.73555
LeftToes  1.06245e-005 4.65869e-005 -8.65513e-006
168
root  -54.9415 41.4223 -0.377823 157.547 -88.6767 -158.659
RightUpLeg  -0.541411 -6.96556 -3.43264
RightLeg  5.89855 -2.45258 2.96988
RightFoot  -2.38477 0.076444 -1.27008
RightToes  0.000481922 0.542163 -0.142578
Spine  -0.904517 0.474655 -0.266012
Spine1  4.63142 -0.0853195 2.95068
HEad  -3.28946 -0.126387 -1.54247
LeftShoulder1  1.13934 -3.67393 -8.35303
LeftArm  -11.3223 2.80566 3.15573
LeftForeArm  25.1484 -4.56704 -4.77359
LeftHand  -0.25398 0.0180481 5.50724
RightShoulder  0.323354 -0.940653 4.76013
RightArm  -23.1516 0.0424795 -1.90511
RightForeArm  -2.60832 4.60806 3.15824
RightHand  -1.77895 6.09126 -18.237
LeftUpLeg  5.5019 3.12983 -0.456774
LeftLeg  1.44651 8.8368 -3.30702
LeftFoot  -5.04511 -0.23774 4.70951
LeftToes  1.06245e-005 4.65869e-005 -8.65513e-006
169
root  -54.9532 41.4229 -0.404403 160.263 -88.6235 -161.201
RightUpLeg  -0.744374 -6.9548 -3.40988
RightLeg  5.94722 -2.39855 2.97662
RightFoot  -2.43122 0.0775678 -1.28755
RightToes  0.000481922 0.542163 -0.142578
Spine  -0.850453 0.532562 -0.152616
Spine1  4.59307 -0.0157016 2.89853
HEad  -3.37751 -0.00383485 -1.5856
LeftShoulder1  1.1316 -3.6005 -8.41208
LeftArm  -11.4099 2.545 3.16963
LeftForeArm  25.4339 -4.47481 -4.7625
LeftHand  -0.25398 0.0180481 5.50724
RightShoulder  0.323316 -0.964824 4.8907
RightArm  -23.1524 0.231048 -2.01632
RightForeArm  -2.55103 4.19464 3.10328
RightHand  -1.83181 6.29678 -18.4457
LeftUpLeg  5.35609 3.1347 -0.444644
LeftLeg  1.41581 8.88687 -3.3481
LeftFoot  -5.06107 -0.232435 4.62678
LeftToes  1.06245e-005 4.65869e-005 -8.65513e-006
170
root  -54.9533 41.4229 -0.425277 160.921 -88.6858 -161.71
RightUpLeg  -0.934714 -6.94108 -3.39032
RightLeg  6.02058 -2.47273 2.96233
RightFoot  -2.47813 0.0768629 -1.27659
RightToes  0.000481922 0.542163 -0.142578
Spine  -0.819417 0.529611 -0.118222
Spine1  4.67048 -0.0568665 3.05164
HEad  -3.5586 0.166223 -1.76984
LeftShoulder1  1.16405 -3.60634 -8.90577
LeftArm  -11.5964 2.35406 3.63626
LeftForeArm  25.4135 -4.45416 -4.71195
LeftHand  -0.25398 0.0180481 5.50724
RightShoulder  0.303604 -1.04357 4.44745
RightArm  -23.2034 0.280195 -1.78614
RightForeArm  -2.47659 4.10373 3.07796
RightHand  -1.85121 6.38129 -18.5066
LeftUpLeg  5.17731 3.08604 -0.464783
LeftLeg  1.44974 8.86717 -3.32004
LeftFoot  -5.06587 -0.226716 4.53761
LeftToes  1.06245e-005 4.65869e-005 -8.65513e-006
171
root  -54.9483 41.4219 -0.445861 160.047 -88.7892 -160.729
RightUpLeg  -1.07234 -6.9357 -3.3667
RightLeg  6.07756 -2.57762 2.96274
RightFoot  -2.52266 0.0764481 -1.27014
RightToes  0.000481922 0.542163 -0.142578
Spine  -0.783361 0.486742 -0.131351
Spine1  4.80701 -0.137785 3.19468
HEad  -3.83228 0.362428 -1.74439
LeftShoulder1  1.16584 -3.55509 -9.06433
LeftArm  -11.5862 2.30101 3.91186
LeftForeArm  25.1773 -4.48194 -4.72186
LeftHand  -0.25398 0.0180481 5.50724
RightShoulder  0.293577 -1.03486 3.95519
RightArm  -23.2299 0.167661 -1.55933
RightForeArm  -2.38457 4.32299 3.0939
RightHand  -1.80825 6.23812 -18.3042
LeftUpLeg  5.00581 3.06339 -0.455285
LeftLeg  1.53894 8.77675 -3.28903
LeftFoot  -5.09119 -0.224505 4.50313
LeftToes  1.06245e-005 4.65869e-005 -8.65513e-006
172
root  -54.9429 41.4209 -0.468916 159.254 -88.8681 -159.814
RightUpLeg  -1.21551 -6.93447 -3.3385
RightLeg  6.10876 -2.64781 2.97751
RightFoot  -2.55324 0.0768957 -1.2771
RightToes  0.000481922 0.542163 -0.142578
Spine  -0.659715 0.437458 -0.163763
Spine1  4.75367 -0.188559 3.20254
HEad  -4.00014 0.478947 -1.43455
LeftShoulder1  1.13472 -3.50331 -8.70626
LeftArm  -11.3628 2.36756 3.79754
LeftForeArm  24.7798 -4.4321 -4.80065
LeftHand  -0.25398 0.0180481 5.50724
RightShoulder  0.304265 -0.936966 3.87083
RightArm  -23.2254 0.0399398 -1.65776
RightForeArm  -2.41494 4.65901 3.141
RightHand  -1.75825 6.04283 -18.1059
LeftUpLeg  4.82331 3.08611 -0.411532
LeftLeg  1.62403 8.67161 -3.304
LeftFoot  -5.12598 -0.223922 4.49405
LeftToes  1.06245e-005 4.65869e-005 -8.65513e-006
173
root  -54.9402 41.4213 -0.489026 158.205 -88.9232 -158.65
RightUpLeg  -1.32198 -6.91708 -3.29682
RightLeg  6.08027 -2.72504 2.98279
RightFoot  -2.55851 0.0760817 -1.26445
RightToes  0.000481922 0.542163 -0.142578
Spine  -0.516199 0.39509 -0.161858
Spine1  4.63291 -0.22213 3.17138
HEad  -4.07031 0.525693 -1.21367
LeftShoulder1  1.11433 -3.50041 -8.38962
LeftArm  -11.281 2.40337 3.5827
LeftForeArm  24.6194 -4.33455 -4.83105
LeftHand  -0.25398 0.0180481 5.50724
RightShoulder  0.306598 -0.924671 3.93655
RightArm  -23.3951 0.0757563 -1.79897
RightForeArm  -2.44357 4.87773 3.13284
RightHand  -1.72299 5.84296 -18.0553
LeftUpLeg  4.67337 3.10812 -0.362469
LeftLeg  1.66599 8.59312 -3.3223
LeftFoot  -5.14766 -0.221109 4.45019
LeftToes  1.06245e-005 4.65869e-005 -8.65513e-006
174
root  -54.9402 41.4237 -0.503818 156.335 -88.954 -156.747
RightUpLeg  -1.31012 -6.87894 -3.24149
RightLeg  5.99497 -2.81921 2.97269
RightFoot  -2.54249 0.074552 -1.24067
RightToes  0.000481922 0.542163 -0.142578
Spine  -0.455031 0.353385 -0.147055
Spine1  4.74072 -0.284413 3.23638
HEad  -4.23414 0.677986 -1.34033
LeftShoulder1  1.09159 -3.37627 -8.33936
LeftArm  -11.6347 2.35815 3.30049
LeftForeArm  24.8349 -4.33386 -4.7053
LeftHand  -0.25398 0.0180481 5.50724
RightShoulder  0.289305 -1.04217 3.78302
RightArm  -23.8036 0.296759 -1.6416
RightForeArm  -2.21032 4.89225 3.02812
RightHand  -1.68009 5.62118 -17.9578
LeftUpLeg  4.63236 3.11088 -0.320325
LeftLeg  1.6766 8.54729 -3.30343
LeftFoot  -5.15153 -0.216976 4.38576
LeftToes  1.06245e-005 4.65869e-005 -8.65513e-006
175
root  -54.9394 41.426 -0.519763 155.502 -88.9375 -155.953
RightUpLeg  -1.24 -6.835 -3.18585
RightLeg  5.92942 -2.86655 2.95699
RightFoot  -2.52083 0.0760409 -1.26381
RightToes  0.000481922 0.542163 -0.142578
Spine  -0.328552 0.319285 -0.159478
Spine1  4.84833 -0.341652 3.31093
HEad  -4.40473 0.953214 -1.56977
LeftShoulder1  1.0303 -3.06471 -8.13028
LeftArm  -12.2803 2.38281 2.69609
LeftForeArm  25.052 -4.42565 -4.45495
LeftHand  -0.25398 0.0180481 5.50724
RightShoulder  0.276067 -1.1257 3.62196
RightArm  -24.1131 0.536422 -1.40827
RightForeArm  -1.76723 4.7969 2.92699
RightHand  -1.64016 5.52539 -17.6931
LeftUpLeg  4.67047 3.12416 -0.279604
LeftLeg  1.68336 8.53379 -3.2816
LeftFoot  -5.13929 -0.215481 4.36245
LeftToes  1.06245e-005 4.65869e-005 -8.65513e-006
176
root  -54.9358 41.4275 -0.541431 156.597 -88.8968 -157.07
RightUpLeg  -1.22727 -6.79854 -3.13976
RightLeg  5.9248 -2.8645 2.94118
RightFoot  -2.50594 0.0805647 -1.33413
RightToes  0.000481922 0.542163 -0.142578
Spine  0.0639718 0.309797 -0.13721
Spine1  4.47582 -0.317334 3.19695
HEad  -4.2597 1.08482 -1.56814
LeftShoulder1  0.963702 -2.84509 -7.5665
LeftArm  -12.7979 2.55565 1.88643
LeftForeArm  25.0376 -4.46097 -4.22862
LeftHand  -0.25398 0.0180481 5.50724
RightShoulder  0.285634 -1.07288 3.77944
RightArm  -24.0215 0.591916 -1.43353
RightForeArm  -1.43615 4.73711 2.93337
RightHand  -1.63161 5.62611 -17.4517
LeftUpLeg  4.68365 3.16029 -0.238664
LeftLeg  1.69561 8.53414 -3.29536
LeftFoot  -5.1105 -0.217065 4.38714
LeftToes  1.06245e-005 4.65869e-005 -8.65513e-006
177
root  -54.9316 41.4289 -0.565079 157.067 -88.9064 -157.513
RightUpLeg  -1.2646 -6.76934 -3.09884
RightLeg  5.92224 -2.9079 2.927
RightFoot  -2.49775 0.0833712 -1.37776
RightToes  0.000481922 0.542163 -0.142578
Spine  0.485177 0.318299 -0.0254689
Spine1  3.88512 -0.234981 2.92678
HEad  -3.82839 0.906741 -1.41305
LeftShoulder1  0.951399 -2.95128 -7.076
LeftArm  -12.9516 2.68195 1.36675
LeftForeArm  24.9332 -4.39517 -4.14461
LeftHand  -0.25398 0.0180481 5.50724
RightShoulder  0.304707 -0.963717 4.05997
RightArm  -23.7281 0.429254 -1.57548
RightForeArm  -1.34738 4.75275 2.99541
RightHand  -1.649 5.76125 -17.4282
LeftUpLeg  4.63454 3.19216 -0.198757
LeftLeg  1.71322 8.49469 -3.31974
LeftFoot  -5.07318 -0.218074 4.40287
LeftToes  1.06245e-005 4.65869e-005 -8.65513e-006
